<svg width="176" height="207" viewBox="0 0 176 207" fill="none" xmlns="http://www.w3.org/2000/svg">
<g filter="url(#filter0_ddd_14901_5049)">
<path fill-rule="evenodd" clip-rule="evenodd" d="M10.3757 39.7364C10.3757 29.0415 10.3757 19.5367 10.3757 14.6607C10.3757 12.7535 11.9276 11.1994 13.8343 11.2412C97.7261 13.0801 165.579 81.6523 165.579 165.974C165.579 181.494 152.998 194.075 137.478 194.075C121.958 194.075 109.377 181.494 109.377 165.974C109.377 112.693 66.6887 69.7003 13.8343 67.8962C11.9368 67.8314 10.3757 66.3082 10.3757 64.4096C10.3757 59.6403 10.3757 50.3793 10.3757 39.7364Z" fill="url(#paint0_radial_14901_5049)"/>
<path d="M13.8191 11.9367C97.336 13.7675 164.883 82.0337 164.884 165.974C164.884 181.109 152.614 193.379 137.478 193.379C122.343 193.379 110.073 181.109 110.073 165.974C110.073 112.309 67.0782 69.018 13.8582 67.2013C12.3119 67.1485 11.071 65.91 11.071 64.4093V14.6603C11.0712 13.1337 12.3121 11.9036 13.8191 11.9367Z" stroke="black" stroke-opacity="0.04" stroke-width="1.39111" stroke-linecap="round"/>
</g>
<defs>
<filter id="filter0_ddd_14901_5049" x="4.19617e-05" y="-5.48363e-06" width="175.955" height="206.18" filterUnits="userSpaceOnUse" color-interpolation-filters="sRGB">
<feFlood flood-opacity="0" result="BackgroundImageFix"/>
<feColorMatrix in="SourceAlpha" type="matrix" values="0 0 0 0 0 0 0 0 0 0 0 0 0 0 0 0 0 0 127 0" result="hardAlpha"/>
<feOffset dy="-0.864641"/>
<feGaussianBlur stdDeviation="5.18785"/>
<feComposite in2="hardAlpha" operator="out"/>
<feColorMatrix type="matrix" values="0 0 0 0 0 0 0 0 0 0 0 0 0 0 0 0 0 0 0.64 0"/>
<feBlend mode="normal" in2="BackgroundImageFix" result="effect1_dropShadow_14901_5049"/>
<feColorMatrix in="SourceAlpha" type="matrix" values="0 0 0 0 0 0 0 0 0 0 0 0 0 0 0 0 0 0 127 0" result="hardAlpha"/>
<feOffset dy="1.72928"/>
<feGaussianBlur stdDeviation="5.18785"/>
<feComposite in2="hardAlpha" operator="out"/>
<feColorMatrix type="matrix" values="0 0 0 0 0.650137 0 0 0 0 0.89425 0 0 0 0 0.192426 0 0 0 1 0"/>
<feBlend mode="normal" in2="effect1_dropShadow_14901_5049" result="effect2_dropShadow_14901_5049"/>
<feColorMatrix in="SourceAlpha" type="matrix" values="0 0 0 0 0 0 0 0 0 0 0 0 0 0 0 0 0 0 127 0" result="hardAlpha"/>
<feOffset dy="-1.72928"/>
<feGaussianBlur stdDeviation="3.45856"/>
<feComposite in2="hardAlpha" operator="out"/>
<feColorMatrix type="matrix" values="0 0 0 0 0 0 0 0 0 0 0 0 0 0 0 0 0 0 0.12 0"/>
<feBlend mode="normal" in2="effect2_dropShadow_14901_5049" result="effect3_dropShadow_14901_5049"/>
<feBlend mode="normal" in="SourceGraphic" in2="effect3_dropShadow_14901_5049" result="shape"/>
</filter>
<radialGradient id="paint0_radial_14901_5049" cx="0" cy="0" r="1" gradientUnits="userSpaceOnUse" gradientTransform="translate(10.3757 163.38) rotate(-43.8542) scale(152.879 129.748)">
<stop offset="0.628125" stop-color="#97C442"/>
<stop offset="0.695833" stop-color="#9FD23E"/>
<stop offset="0.758333" stop-color="#94D222"/>
<stop offset="0.805208" stop-color="#8DD408"/>
<stop offset="0.857292" stop-color="#9CE70E"/>
<stop offset="0.935417" stop-color="#A7F21B"/>
<stop offset="1" stop-color="#A5EA23"/>
</radialGradient>
</defs>
</svg>
