<svg width="248" height="40" viewBox="0 0 248 40" fill="none" xmlns="http://www.w3.org/2000/svg">
<path d="M0.86669 39.9962C0.296086 39.9962 -0.0843173 39.5401 0.0160668 38.9778L2.95626 22.6407C3.05929 22.0785 3.60348 21.6223 4.17144 21.6223H17.2108C19.8921 21.6223 21.6779 23.7679 21.1998 26.4147L20.4495 30.5918C20.1219 32.4085 18.809 33.9786 17.15 34.7875C17.0312 34.8458 16.9704 34.9811 17.0259 35.0792L19.1762 38.8346C19.4615 39.3412 19.1049 39.9485 18.529 39.9485C16.7327 39.9485 15.6179 40.0042 14.8835 39.9962C13.6313 40.0148 13.2166 39.9618 12.9867 39.5056L11.0187 35.6521C10.9342 35.485 10.7598 35.3815 10.5538 35.3815L6.37989 35.3868C6.2663 35.3868 6.15799 35.4797 6.13686 35.5911L5.52663 38.9805C5.4236 39.5427 4.88205 39.9989 4.30881 39.9989H0.86669V39.9962ZM7.0456 30.5732C7.0271 30.6873 7.10107 30.7775 7.21466 30.7775H13.9615C14.4687 30.7775 14.9522 30.3717 15.0446 29.8704L15.5386 27.1228C15.6284 26.6189 15.2903 26.2131 14.7805 26.2131H8.03623C7.92264 26.2131 7.81168 26.306 7.79319 26.4174L7.0456 30.5706V30.5732Z" fill="white"/>
<path d="M21.6278 38.9754L24.5706 22.6251C24.6737 22.0628 25.2178 21.604 25.7884 21.604H41.1948C41.5382 21.604 41.7654 21.8798 41.7046 22.2166L41.0812 25.6803C41.0204 26.0198 40.6928 26.2956 40.3494 26.2956H29.64C29.5264 26.2956 29.4155 26.3884 29.397 26.4998L29.0562 28.3934C29.0377 28.5048 29.1117 28.5977 29.2253 28.5977H37.8372C38.1806 28.5977 38.4078 28.8708 38.347 29.2103L37.7738 32.3928C37.713 32.7297 37.3855 33.0055 37.042 33.0055H28.4301C28.3165 33.0055 28.2056 33.0983 28.1871 33.2097L27.8701 34.976C27.8516 35.0874 27.9256 35.1802 28.0392 35.1802H38.7486C39.092 35.1802 39.3192 35.4534 39.2584 35.7929L38.6138 39.3865C38.5531 39.7233 38.2255 39.9991 37.8821 39.9991H22.4758C21.9025 39.9991 21.5221 39.5403 21.6225 38.9781L21.6278 38.9754Z" fill="white"/>
<path d="M48.2499 29.7798L46.5936 38.9747C46.4932 39.5369 45.949 39.9931 45.3784 39.9931H41.9521C41.3815 39.9931 41.0011 39.5369 41.1015 38.9747L44.0364 22.6615C44.1395 22.0992 44.6836 21.6431 45.2542 21.6431H49.6236C49.9274 21.6431 50.1942 21.773 50.3501 22.0064L55.5225 31.2385C55.6546 31.4321 55.9504 31.379 55.9901 31.1536L57.517 22.6615C57.6173 22.0992 58.1615 21.6431 58.7321 21.6431H62.1584C62.729 21.6431 63.1094 22.0992 63.0117 22.6641L60.0768 38.9747C59.9737 39.5369 59.4295 39.9931 58.8589 39.9931H55.076C54.7696 39.9931 54.5054 39.8605 54.3496 39.6298L48.7175 29.6923C48.5854 29.4987 48.2869 29.5517 48.2499 29.7771V29.7798Z" fill="white"/>
<path d="M82.7571 22.6542L82.2816 25.293C82.1786 25.8553 81.6344 26.3114 81.0638 26.3114H76.0182C75.9046 26.3114 75.7936 26.4043 75.7752 26.5157L73.5297 38.9753C73.4267 39.5376 72.8851 39.9937 72.3145 39.9937H68.8645C68.2939 39.9937 67.9135 39.5376 68.0139 38.9753L70.2567 26.5157C70.2778 26.4016 70.2012 26.3114 70.0876 26.3114H65.042C64.4714 26.3114 64.091 25.8553 64.1914 25.293L64.6642 22.6542C64.7672 22.0919 65.3114 21.6357 65.882 21.6357H81.9065C82.4771 21.6357 82.8549 22.0919 82.7545 22.6542H82.7571Z" fill="white"/>
<path d="M81.4816 38.9754L84.4244 22.6251C84.5275 22.0628 85.0716 21.604 85.6423 21.604H101.049C101.392 21.604 101.619 21.8798 101.558 22.2166L100.932 25.6803C100.872 26.0198 100.544 26.2956 100.203 26.2956H89.4938C89.3802 26.2956 89.2693 26.3884 89.2508 26.4998L88.91 28.3934C88.8915 28.5048 88.9655 28.5977 89.0791 28.5977H97.691C98.0344 28.5977 98.2616 28.8708 98.2008 29.2103L97.6276 32.3928C97.5668 32.7297 97.2393 33.0055 96.8985 33.0055H88.2866C88.173 33.0055 88.062 33.0983 88.0435 33.2097L87.7265 34.976C87.708 35.0874 87.782 35.1802 87.8956 35.1802H98.605C98.9484 35.1802 99.1756 35.4534 99.1149 35.7929L98.4703 39.3865C98.4095 39.7233 98.082 39.9991 97.7412 39.9991H82.3322C81.759 39.9991 81.3786 39.5403 81.479 38.9781L81.4816 38.9754Z" fill="white"/>
<path d="M101.803 39.9962C101.233 39.9962 100.852 39.5401 100.953 38.9778L103.893 22.6407C103.996 22.0785 104.54 21.6223 105.108 21.6223H118.147C120.829 21.6223 122.614 23.7679 122.136 26.4147L121.386 30.5918C121.058 32.4085 119.746 33.9786 118.087 34.7875C117.968 34.8458 117.907 34.9811 117.962 35.0792L120.113 38.8346C120.398 39.3412 120.041 39.9485 119.463 39.9485C117.667 39.9485 116.552 40.0042 115.817 39.9962C114.565 40.0148 114.148 39.9618 113.921 39.5056L111.953 35.6521C111.868 35.485 111.696 35.3815 111.488 35.3815L107.314 35.3868C107.2 35.3868 107.092 35.4797 107.071 35.5911L106.461 38.9805C106.357 39.5427 105.813 39.9989 105.243 39.9989H101.795L101.803 39.9962ZM107.982 30.5732C107.964 30.6873 108.038 30.7775 108.151 30.7775H114.898C115.405 30.7775 115.889 30.3717 115.981 29.8704L116.475 27.1228C116.565 26.6189 116.227 26.2131 115.717 26.2131H108.97C108.857 26.2131 108.748 26.306 108.727 26.4174L107.979 30.5706L107.982 30.5732Z" fill="white"/>
<path d="M85.2671 1.05289L82.3296 17.3741C82.2265 17.9363 81.6823 18.3925 81.1117 18.3925H77.6617C77.0911 18.3925 76.7107 17.9363 76.8111 17.3741L77.8545 11.5659C77.873 11.4519 77.7991 11.3617 77.6855 11.3617H70.9994C70.8858 11.3617 70.7748 11.4545 70.7563 11.5659L69.7102 17.3741C69.6072 17.9363 69.0656 18.3925 68.495 18.3925H65.045C64.4744 18.3925 64.094 17.9363 64.197 17.3741L67.1319 1.05289C67.235 0.490643 67.7791 0.0344772 68.3498 0.0344772H71.7998C72.3704 0.0344772 72.7508 0.490643 72.6504 1.05289L71.6228 6.75761C71.6043 6.869 71.6783 6.95917 71.7919 6.95917H78.478C78.5916 6.95917 78.7025 6.869 78.721 6.75761L79.7486 1.05289C79.8517 0.490643 80.3958 0.0344772 80.9664 0.0344772H84.4165C84.9871 0.0344772 85.3675 0.490643 85.2697 1.05289H85.2671Z" fill="white"/>
<path d="M85.2294 17.3714L88.1722 1.02107C88.2752 0.458817 88.8194 0 89.39 0H104.796C105.14 0 105.367 0.275821 105.306 0.612641L104.683 4.07631C104.622 4.41579 104.294 4.69161 103.951 4.69161H93.2416C93.128 4.69161 93.0171 4.78443 92.9986 4.89582L92.6578 6.78944C92.6393 6.90083 92.7133 6.99365 92.8269 6.99365H101.439C101.782 6.99365 102.009 7.26682 101.949 7.60629L101.375 10.7888C101.315 11.1257 100.987 11.4015 100.644 11.4015H92.0317C91.9181 11.4015 91.8072 11.4943 91.7887 11.6057L91.4717 13.372C91.4532 13.4834 91.5271 13.5762 91.6407 13.5762H102.35C102.694 13.5762 102.921 13.8494 102.86 14.1889L102.215 17.7825C102.155 18.1193 101.827 18.3951 101.484 18.3951H86.0773C85.5041 18.3951 85.1237 17.9363 85.2241 17.3741L85.2294 17.3714Z" fill="white"/>
<path d="M124.849 0.954467L116.531 11.6531C116.454 11.8202 116.383 11.9847 116.309 12.1517L115.368 17.3738C115.265 17.936 114.724 18.3922 114.151 18.3922H110.701C110.13 18.3922 109.747 17.936 109.85 17.3738L110.79 12.1517C110.772 11.9661 110.751 11.791 110.73 11.6054L106.278 0.954467C106.109 0.54604 106.5 0.0341797 106.978 0.0341797H111.353C111.718 0.0341797 112.021 0.222481 112.148 0.535431L114.412 5.95107C114.489 6.13672 114.74 6.17385 114.859 6.02268L119.125 0.538083C119.368 0.225133 119.738 0.0368318 120.105 0.0368318H124.482C124.963 0.0368318 125.166 0.551344 124.849 0.959771V0.954467Z" fill="white"/>
<path d="M61.5581 15.5118L4.27051 16.9519L61.006 18.392L61.5581 15.5118Z" fill="#B8F04F"/>
<path d="M62.3023 11.6434L5.01465 13.0835L61.7501 14.5262L62.3023 11.6434Z" fill="#B8F04F"/>
<path d="M63.0464 7.77374L5.75879 9.21384L62.4943 10.6566L63.0464 7.77374Z" fill="#B8F04F"/>
<path d="M63.7857 3.90409L6.49805 5.34419L63.2335 6.78695L63.7857 3.90409Z" fill="#B8F04F"/>
<path d="M64.5249 0.0344772L7.2373 1.47723L63.9728 2.91734L64.5249 0.0344772Z" fill="#B8F04F"/>
</svg>
