<svg width="240" height="20" viewBox="0 0 240 20" fill="none" xmlns="http://www.w3.org/2000/svg">
<path d="M21.886 1.675C20.2136 0.8925 18.4253 0.323814 16.5557 0C16.3261 0.415119 16.0579 0.973462 15.8729 1.41762C13.8855 1.11874 11.9164 1.11874 9.96554 1.41762C9.78063 0.973462 9.50629 0.415119 9.27463 0C7.40304 0.323814 5.61273 0.894589 3.94028 1.67914C0.566943 6.77669 -0.347514 11.7476 0.109716 16.648C2.34709 18.3188 4.51538 19.3338 6.64707 19.9979C7.1734 19.2736 7.64281 18.5035 8.0472 17.692C7.27703 17.3994 6.53937 17.0382 5.84237 16.6189C6.02728 16.482 6.20815 16.3387 6.3829 16.1914C10.6341 18.1798 15.2531 18.1798 19.4536 16.1914C19.6304 16.3387 19.8112 16.482 19.9941 16.6189C19.295 17.0403 18.5554 17.4014 17.7852 17.6941C18.1896 18.5035 18.657 19.2757 19.1853 20C21.3191 19.3358 23.4894 18.3209 25.7267 16.648C26.2632 10.9672 24.8103 6.04194 21.886 1.675ZM8.62637 13.6343C7.3502 13.6343 6.30363 12.4429 6.30363 10.9921C6.30363 9.54132 7.32785 8.34788 8.62637 8.34788C9.92492 8.34788 10.9714 9.53923 10.9491 10.9921C10.9511 12.4429 9.92492 13.6343 8.62637 13.6343ZM17.2101 13.6343C15.9339 13.6343 14.8874 12.4429 14.8874 10.9921C14.8874 9.54132 15.9115 8.34788 17.2101 8.34788C18.5086 8.34788 19.5552 9.53923 19.5328 10.9921C19.5328 12.4429 18.5086 13.6343 17.2101 13.6343Z" fill="white"/>
<path d="M71.5025 1.2953C71.4881 1.90617 71.3283 2.49029 71.2149 3.0811C70.2106 8.30844 69.2023 13.5334 68.1899 18.7558C68.1838 18.7856 68.1789 18.8166 68.1722 18.8446C67.9046 20.0201 67.1099 20.3374 66.219 19.6171C64.7148 18.4015 63.2124 17.1842 61.7119 15.9653C61.3889 15.7039 61.3906 15.7051 61.1097 16.0011C60.367 16.7852 59.6215 17.5657 58.8799 18.3516C58.7046 18.5468 58.4822 18.6828 58.239 18.7437C58.0343 18.7929 57.9459 18.7133 57.9624 18.4774C58.0222 17.5918 58.0764 16.7056 58.1339 15.8194C58.1837 15.0541 58.2445 14.2901 58.2804 13.5242C58.2818 13.4094 58.3056 13.2962 58.3503 13.1924C58.3949 13.0886 58.4594 12.9965 58.5392 12.9225C61.4758 10.0146 64.4108 7.10393 67.3444 4.1904C67.387 4.15272 67.4275 4.11211 67.4655 4.06883C67.5457 3.96732 67.7105 3.88648 67.6341 3.72601C67.5534 3.55643 67.3892 3.62451 67.2614 3.67131C67.1404 3.71722 67.0246 3.77841 66.9163 3.85366C63.2509 6.38831 59.5878 8.92641 55.9268 11.4679C55.6614 11.6503 55.4357 11.6935 55.1349 11.5859C53.6578 11.0583 52.174 10.5526 50.692 10.0432C50.4964 9.98416 50.3099 9.89319 50.1389 9.77332C49.764 9.48946 49.7341 9.07492 50.0687 8.72967C50.2938 8.49748 50.5664 8.35282 50.8518 8.23186C53.9903 6.90152 57.1291 5.57118 60.268 4.24084C63.4069 2.91051 66.5464 1.58138 69.6864 0.253478C69.8578 0.180538 70.0298 0.105775 70.2062 0.0522861C70.9179 -0.16167 71.4782 0.298457 71.5019 1.11356C71.5041 1.17434 71.5025 1.23452 71.5025 1.2953Z" fill="white"/>
<path d="M71.5025 1.2953C71.4881 1.90617 71.3283 2.49029 71.2149 3.0811C70.2106 8.30844 69.2023 13.5334 68.1899 18.7558C68.1838 18.7856 68.1789 18.8166 68.1722 18.8446C67.9046 20.0201 67.1099 20.3374 66.219 19.6171C64.7148 18.4015 63.2124 17.1842 61.7119 15.9653C61.3889 15.7039 61.3906 15.7051 61.1097 16.0011C60.367 16.7852 59.6215 17.5657 58.8799 18.3516C58.7046 18.5468 58.4822 18.6828 58.239 18.7437C58.0343 18.7929 57.9459 18.7133 57.9624 18.4774C58.0222 17.5918 58.0764 16.7056 58.1339 15.8194C58.1837 15.0541 58.2445 14.2901 58.2804 13.5242C58.2818 13.4094 58.3056 13.2962 58.3503 13.1924C58.3949 13.0886 58.4594 12.9965 58.5392 12.9225C61.4758 10.0146 64.4108 7.10393 67.3444 4.1904C67.387 4.15272 67.4275 4.11211 67.4655 4.06883C67.5457 3.96732 67.7105 3.88648 67.6341 3.72601C67.5534 3.55643 67.3892 3.62451 67.2614 3.67131C67.1404 3.71722 67.0246 3.77841 66.9163 3.85366C63.2509 6.38831 59.5878 8.92641 55.9268 11.4679C55.6614 11.6503 55.4357 11.6935 55.1349 11.5859C53.6578 11.0583 52.174 10.5526 50.692 10.0432C50.4964 9.98416 50.3099 9.89319 50.1389 9.77332C49.764 9.48946 49.7341 9.07492 50.0687 8.72967C50.2938 8.49748 50.5664 8.35282 50.8518 8.23186C53.9903 6.90152 57.1291 5.57118 60.268 4.24084C63.4069 2.91051 66.5464 1.58138 69.6864 0.253478C69.8578 0.180538 70.0298 0.105775 70.2062 0.0522861C70.9179 -0.16167 71.4782 0.298457 71.5019 1.11356C71.5041 1.17434 71.5025 1.23452 71.5025 1.2953Z" fill="white"/>
<path d="M106.331 13.3157C108.123 12.8928 109.233 11.0975 108.81 9.30581C108.387 7.51409 106.592 6.40443 104.8 6.82732C103.008 7.2502 101.898 9.04549 102.321 10.8372C102.744 12.6289 104.54 13.7386 106.331 13.3157Z" fill="white"/>
<path d="M115.443 5.87699C115.395 4.81273 115.225 4.08586 114.978 3.44976C114.727 2.78242 114.334 2.17793 113.825 1.67854C113.325 1.16981 112.721 0.776164 112.054 0.525046C111.418 0.27765 110.691 0.108762 109.626 0.0601256C108.562 0.011489 108.218 0 105.503 0C102.789 0 102.447 0.011489 101.38 0.0601256C100.314 0.108762 99.5893 0.27765 98.9532 0.525046C98.2858 0.77592 97.6813 1.1696 97.182 1.67854C96.6731 2.17793 96.2794 2.78242 96.0285 3.44976C95.7811 4.08586 95.6122 4.81273 95.5635 5.87699C95.5149 6.94125 95.5034 7.28401 95.5034 10C95.5034 12.716 95.5149 13.0564 95.5635 14.123C95.6122 15.1896 95.7811 15.9141 96.0285 16.5502C96.2796 17.2175 96.6732 17.822 97.182 18.3215C97.6813 18.8304 98.2858 19.2241 98.9532 19.475C99.5893 19.722 100.316 19.8912 101.38 19.9399C102.445 19.9885 102.787 20 105.503 20C108.219 20 108.56 19.9885 109.626 19.9399C110.693 19.8912 111.418 19.722 112.054 19.475C112.718 19.218 113.321 18.8251 113.825 18.3215C114.329 17.8178 114.721 17.2145 114.978 16.5502C115.225 15.9141 115.395 15.1873 115.443 14.123C115.492 13.0587 115.503 12.7156 115.503 10C115.503 7.28439 115.492 6.94355 115.443 5.87699ZM105.503 15.1352C104.488 15.1352 103.495 14.834 102.65 14.2698C101.806 13.7055 101.148 12.9035 100.759 11.9652C100.37 11.0268 100.269 9.9943 100.467 8.99817C100.665 8.00205 101.154 7.08704 101.872 6.36887C102.59 5.65071 103.505 5.16163 104.502 4.96348C105.498 4.76534 106.53 4.86704 107.469 5.25571C108.407 5.64438 109.209 6.30257 109.773 7.14704C110.337 7.99152 110.639 8.98436 110.639 10C110.639 11.3619 110.098 12.6681 109.135 13.6311C108.172 14.5942 106.865 15.1352 105.503 15.1352ZM111.071 5.21101C110.834 5.21101 110.602 5.14062 110.404 5.00874C110.207 4.87686 110.053 4.68941 109.962 4.4701C109.871 4.25079 109.848 4.00947 109.894 3.77665C109.94 3.54383 110.054 3.32997 110.222 3.16212C110.39 2.99427 110.604 2.87996 110.837 2.83365C111.07 2.78734 111.311 2.8111 111.53 2.90195C111.75 2.99279 111.937 3.14662 112.069 3.344C112.201 3.54137 112.271 3.77342 112.271 4.0108C112.271 4.32912 112.145 4.6344 111.92 4.85948C111.695 5.08456 111.389 5.21101 111.071 5.21101Z" fill="white"/>
<path d="M139.833 6.64004H143.978V19.9972H139.833V6.64004ZM141.905 1.18085e-06C142.38 -0.000470473 142.845 0.140359 143.241 0.404672C143.637 0.668986 143.945 1.04491 144.127 1.48488C144.31 1.92485 144.358 2.40911 144.265 2.87638C144.173 3.34366 143.944 3.77295 143.608 4.10996C143.272 4.44698 142.843 4.67656 142.377 4.76967C141.911 4.86278 141.427 4.81523 140.988 4.63304C140.548 4.45085 140.173 4.1422 139.909 3.74615C139.644 3.35009 139.503 2.88443 139.503 2.40806C139.503 1.76981 139.756 1.15768 140.207 0.706147C140.657 0.254617 141.268 0.000633105 141.905 1.18085e-06Z" fill="white"/>
<path d="M146.571 6.64225H150.547V8.47015H150.605C151.16 7.41951 152.508 6.31323 154.526 6.31323C158.723 6.31323 159.497 9.07892 159.497 12.6751V20.001H155.353V13.504C155.353 11.9543 155.326 9.96187 153.199 9.96187C151.043 9.96187 150.714 11.6507 150.714 13.3928V19.9994H146.571V6.64225Z" fill="white"/>
<path d="M193.497 3.28677H191.685C190.261 3.28677 189.992 3.99343 189.992 5.02054V7.32128H193.378V10.8792H189.992V20H186.455V10.8792H183.497V7.32128H186.455V4.70008C186.455 1.64339 188.243 0 190.854 0H193.497V3.28677Z" fill="white"/>
<path d="M239.163 2.36756C238.366 2.76913 237.509 3.04054 236.61 3.1626C237.528 2.5377 238.233 1.54822 238.565 0.369253C237.706 0.947799 236.754 1.368 235.742 1.59449C234.931 0.613202 233.776 0 232.497 0C230.042 0 228.052 2.26062 228.052 5.04892C228.052 5.44464 228.091 5.83001 228.167 6.19953C224.473 5.98898 221.197 3.97888 219.005 0.924214C218.622 1.66992 218.403 2.53725 218.403 3.46254C218.403 5.2142 219.188 6.75962 220.381 7.66503C219.652 7.63883 218.967 7.41172 218.367 7.03355C218.367 7.05461 218.367 7.07577 218.367 7.09701C218.367 9.54334 219.899 11.584 221.933 12.0478C221.56 12.1632 221.167 12.2249 220.761 12.2249C220.475 12.2249 220.197 12.1933 219.925 12.1343C220.491 14.1403 222.132 15.6 224.078 15.6408C222.556 16.9949 220.64 17.8021 218.557 17.8021C218.198 17.8021 217.844 17.7783 217.497 17.7316C219.464 19.1642 221.8 20 224.311 20C232.487 20 236.958 12.3064 236.958 5.6344C236.958 5.41548 236.954 5.19772 236.945 4.98123C237.814 4.26937 238.567 3.38008 239.163 2.36756Z" fill="white"/>
</svg>
